<svg id="visual" viewBox="0 0 960 300" width="960" height="300" xmlns="http://www.w3.org/2000/svg" xmlns:xlink="http://www.w3.org/1999/xlink" version="1.1"><rect x="0" y="0" width="960" height="300" fill="#d6e3ee"></rect><path d="M0 204L11.5 204C23 204 46 204 68.8 204.8C91.7 205.7 114.3 207.3 137.2 206.3C160 205.3 183 201.7 205.8 204.8C228.7 208 251.3 218 274.2 222.3C297 226.7 320 225.3 342.8 225.8C365.7 226.3 388.3 228.7 411.2 224.5C434 220.3 457 209.7 480 206.3C503 203 526 207 548.8 208.8C571.7 210.7 594.3 210.3 617.2 208.7C640 207 663 204 685.8 204.8C708.7 205.7 731.3 210.3 754.2 213.3C777 216.3 800 217.7 822.8 215.2C845.7 212.7 868.3 206.3 891.2 206.2C914 206 937 212 948.5 215L960 218L960 301L948.5 301C937 301 914 301 891.2 301C868.3 301 845.7 301 822.8 301C800 301 777 301 754.2 301C731.3 301 708.7 301 685.8 301C663 301 640 301 617.2 301C594.3 301 571.7 301 548.8 301C526 301 503 301 480 301C457 301 434 301 411.2 301C388.3 301 365.7 301 342.8 301C320 301 297 301 274.2 301C251.3 301 228.7 301 205.8 301C183 301 160 301 137.2 301C114.3 301 91.7 301 68.8 301C46 301 23 301 11.5 301L0 301Z" fill="#fcaf3c"></path><path d="M0 227L11.5 224.8C23 222.7 46 218.3 68.8 216.8C91.7 215.3 114.3 216.7 137.2 217.8C160 219 183 220 205.8 221.3C228.7 222.7 251.3 224.3 274.2 225.5C297 226.7 320 227.3 342.8 225.3C365.7 223.3 388.3 218.7 411.2 216C434 213.3 457 212.7 480 212.8C503 213 526 214 548.8 216.2C571.7 218.3 594.3 221.7 617.2 221.8C640 222 663 219 685.8 219.3C708.7 219.7 731.3 223.3 754.2 222C777 220.7 800 214.3 822.8 214C845.7 213.7 868.3 219.3 891.2 220.5C914 221.7 937 218.3 948.5 216.7L960 215L960 301L948.5 301C937 301 914 301 891.2 301C868.3 301 845.7 301 822.8 301C800 301 777 301 754.2 301C731.3 301 708.7 301 685.8 301C663 301 640 301 617.2 301C594.3 301 571.7 301 548.8 301C526 301 503 301 480 301C457 301 434 301 411.2 301C388.3 301 365.7 301 342.8 301C320 301 297 301 274.2 301C251.3 301 228.7 301 205.8 301C183 301 160 301 137.2 301C114.3 301 91.7 301 68.8 301C46 301 23 301 11.5 301L0 301Z" fill="#fea73f"></path><path d="M0 226L11.5 229.2C23 232.3 46 238.7 68.8 238.8C91.7 239 114.3 233 137.2 232.2C160 231.3 183 235.7 205.8 236.7C228.7 237.7 251.3 235.3 274.2 235.2C297 235 320 237 342.8 237.8C365.7 238.7 388.3 238.3 411.2 239C434 239.7 457 241.3 480 238.3C503 235.3 526 227.7 548.8 224C571.7 220.3 594.3 220.7 617.2 220.8C640 221 663 221 685.8 223.3C708.7 225.7 731.3 230.3 754.2 233.3C777 236.3 800 237.7 822.8 236.3C845.7 235 868.3 231 891.2 230.5C914 230 937 233 948.5 234.5L960 236L960 301L948.5 301C937 301 914 301 891.2 301C868.3 301 845.7 301 822.8 301C800 301 777 301 754.2 301C731.3 301 708.7 301 685.8 301C663 301 640 301 617.2 301C594.3 301 571.7 301 548.8 301C526 301 503 301 480 301C457 301 434 301 411.2 301C388.3 301 365.7 301 342.8 301C320 301 297 301 274.2 301C251.3 301 228.7 301 205.8 301C183 301 160 301 137.2 301C114.3 301 91.7 301 68.8 301C46 301 23 301 11.5 301L0 301Z" fill="#ff9e43"></path><path d="M0 249L11.5 248.3C23 247.7 46 246.3 68.8 244.7C91.7 243 114.3 241 137.2 239.5C160 238 183 237 205.8 238C228.7 239 251.3 242 274.2 244.2C297 246.3 320 247.7 342.8 246.7C365.7 245.7 388.3 242.3 411.2 239.3C434 236.3 457 233.7 480 232.7C503 231.7 526 232.3 548.8 236C571.7 239.7 594.3 246.3 617.2 249.2C640 252 663 251 685.8 249.2C708.7 247.3 731.3 244.7 754.2 242.8C777 241 800 240 822.8 239.8C845.7 239.7 868.3 240.3 891.2 239C914 237.7 937 234.3 948.5 232.7L960 231L960 301L948.5 301C937 301 914 301 891.2 301C868.3 301 845.7 301 822.8 301C800 301 777 301 754.2 301C731.3 301 708.7 301 685.8 301C663 301 640 301 617.2 301C594.3 301 571.7 301 548.8 301C526 301 503 301 480 301C457 301 434 301 411.2 301C388.3 301 365.7 301 342.8 301C320 301 297 301 274.2 301C251.3 301 228.7 301 205.8 301C183 301 160 301 137.2 301C114.3 301 91.7 301 68.8 301C46 301 23 301 11.5 301L0 301Z" fill="#ff9647"></path><path d="M0 257L11.5 257.2C23 257.3 46 257.7 68.8 254.7C91.7 251.7 114.3 245.3 137.2 245.5C160 245.7 183 252.3 205.8 256C228.7 259.7 251.3 260.3 274.2 257.7C297 255 320 249 342.8 248.8C365.7 248.7 388.3 254.3 411.2 257C434 259.7 457 259.3 480 259C503 258.7 526 258.3 548.8 258.8C571.7 259.3 594.3 260.7 617.2 259.7C640 258.7 663 255.3 685.8 252.7C708.7 250 731.3 248 754.2 248.8C777 249.7 800 253.3 822.8 255.7C845.7 258 868.3 259 891.2 258.2C914 257.3 937 254.7 948.5 253.3L960 252L960 301L948.5 301C937 301 914 301 891.2 301C868.3 301 845.7 301 822.8 301C800 301 777 301 754.2 301C731.3 301 708.7 301 685.8 301C663 301 640 301 617.2 301C594.3 301 571.7 301 548.8 301C526 301 503 301 480 301C457 301 434 301 411.2 301C388.3 301 365.7 301 342.8 301C320 301 297 301 274.2 301C251.3 301 228.7 301 205.8 301C183 301 160 301 137.2 301C114.3 301 91.7 301 68.8 301C46 301 23 301 11.5 301L0 301Z" fill="#ff8e4b"></path><path d="M0 267L11.5 264.5C23 262 46 257 68.8 257C91.7 257 114.3 262 137.2 262C160 262 183 257 205.8 255C228.7 253 251.3 254 274.2 255.3C297 256.7 320 258.3 342.8 260.5C365.7 262.7 388.3 265.3 411.2 265.3C434 265.3 457 262.7 480 262.8C503 263 526 266 548.8 265.7C571.7 265.3 594.3 261.7 617.2 260.8C640 260 663 262 685.8 263.5C708.7 265 731.3 266 754.2 265.5C777 265 800 263 822.8 260.2C845.7 257.3 868.3 253.7 891.2 254C914 254.3 937 258.7 948.5 260.8L960 263L960 301L948.5 301C937 301 914 301 891.2 301C868.3 301 845.7 301 822.8 301C800 301 777 301 754.2 301C731.3 301 708.7 301 685.8 301C663 301 640 301 617.2 301C594.3 301 571.7 301 548.8 301C526 301 503 301 480 301C457 301 434 301 411.2 301C388.3 301 365.7 301 342.8 301C320 301 297 301 274.2 301C251.3 301 228.7 301 205.8 301C183 301 160 301 137.2 301C114.3 301 91.7 301 68.8 301C46 301 23 301 11.5 301L0 301Z" fill="#ff8650"></path><path d="M0 270L11.5 268.8C23 267.7 46 265.3 68.8 265.5C91.7 265.7 114.3 268.3 137.2 267.8C160 267.3 183 263.7 205.8 263.7C228.7 263.7 251.3 267.3 274.2 269.8C297 272.3 320 273.7 342.8 273.5C365.7 273.3 388.3 271.7 411.2 269.8C434 268 457 266 480 264.8C503 263.7 526 263.3 548.8 264.2C571.7 265 594.3 267 617.2 268.8C640 270.7 663 272.3 685.8 273C708.7 273.7 731.3 273.3 754.2 271.3C777 269.3 800 265.7 822.8 264.8C845.7 264 868.3 266 891.2 267.7C914 269.3 937 270.7 948.5 271.3L960 272L960 301L948.5 301C937 301 914 301 891.2 301C868.3 301 845.7 301 822.8 301C800 301 777 301 754.2 301C731.3 301 708.7 301 685.8 301C663 301 640 301 617.2 301C594.3 301 571.7 301 548.8 301C526 301 503 301 480 301C457 301 434 301 411.2 301C388.3 301 365.7 301 342.8 301C320 301 297 301 274.2 301C251.3 301 228.7 301 205.8 301C183 301 160 301 137.2 301C114.3 301 91.7 301 68.8 301C46 301 23 301 11.5 301L0 301Z" fill="#ff7e55"></path><path d="M0 279L11.5 279.7C23 280.3 46 281.7 68.8 282.7C91.7 283.7 114.3 284.3 137.2 283.7C160 283 183 281 205.8 279C228.7 277 251.3 275 274.2 273.8C297 272.7 320 272.3 342.8 272.8C365.7 273.3 388.3 274.7 411.2 275.5C434 276.3 457 276.7 480 276C503 275.3 526 273.7 548.8 273.7C571.7 273.7 594.3 275.3 617.2 276.5C640 277.7 663 278.3 685.8 279.7C708.7 281 731.3 283 754.2 282.8C777 282.7 800 280.3 822.8 279.5C845.7 278.7 868.3 279.3 891.2 280.2C914 281 937 282 948.5 282.5L960 283L960 301L948.5 301C937 301 914 301 891.2 301C868.3 301 845.7 301 822.8 301C800 301 777 301 754.2 301C731.3 301 708.7 301 685.8 301C663 301 640 301 617.2 301C594.3 301 571.7 301 548.8 301C526 301 503 301 480 301C457 301 434 301 411.2 301C388.3 301 365.7 301 342.8 301C320 301 297 301 274.2 301C251.3 301 228.7 301 205.8 301C183 301 160 301 137.2 301C114.3 301 91.7 301 68.8 301C46 301 23 301 11.5 301L0 301Z" fill="#ff765b"></path><path d="M0 282L11.5 283.3C23 284.7 46 287.3 68.8 288.5C91.7 289.7 114.3 289.3 137.2 289.7C160 290 183 291 205.8 290C228.7 289 251.3 286 274.2 284.3C297 282.7 320 282.3 342.8 282.2C365.7 282 388.3 282 411.2 283.3C434 284.7 457 287.3 480 288.3C503 289.3 526 288.7 548.8 287.5C571.7 286.3 594.3 284.7 617.2 283.5C640 282.3 663 281.7 685.8 283.2C708.7 284.7 731.3 288.3 754.2 289.3C777 290.3 800 288.7 822.8 288.7C845.7 288.7 868.3 290.3 891.2 290.3C914 290.3 937 288.7 948.5 287.8L960 287L960 301L948.5 301C937 301 914 301 891.2 301C868.3 301 845.7 301 822.8 301C800 301 777 301 754.2 301C731.3 301 708.7 301 685.8 301C663 301 640 301 617.2 301C594.3 301 571.7 301 548.8 301C526 301 503 301 480 301C457 301 434 301 411.2 301C388.3 301 365.7 301 342.8 301C320 301 297 301 274.2 301C251.3 301 228.7 301 205.8 301C183 301 160 301 137.2 301C114.3 301 91.7 301 68.8 301C46 301 23 301 11.5 301L0 301Z" fill="#ff6f61"></path></svg>