<svg id="visual" viewBox="0 0 960 300" width="960" height="300" xmlns="http://www.w3.org/2000/svg" xmlns:xlink="http://www.w3.org/1999/xlink" version="1.1"><rect x="0" y="0" width="960" height="300" fill="#ffffff"></rect><path d="M0 185L26.7 186.7C53.3 188.3 106.7 191.7 160 185.7C213.3 179.7 266.7 164.3 320 160C373.3 155.7 426.7 162.3 480 172C533.3 181.7 586.7 194.3 640 190.8C693.3 187.3 746.7 167.7 800 159.5C853.3 151.3 906.7 154.7 933.3 156.3L960 158L960 301L933.3 301C906.7 301 853.3 301 800 301C746.7 301 693.3 301 640 301C586.7 301 533.3 301 480 301C426.7 301 373.3 301 320 301C266.7 301 213.3 301 160 301C106.7 301 53.3 301 26.7 301L0 301Z" fill="#ddfaf4"></path><path d="M0 175L26.7 183.2C53.3 191.3 106.7 207.7 160 217.5C213.3 227.3 266.7 230.7 320 231.3C373.3 232 426.7 230 480 221.8C533.3 213.7 586.7 199.3 640 198C693.3 196.7 746.7 208.3 800 208.2C853.3 208 906.7 196 933.3 190L960 184L960 301L933.3 301C906.7 301 853.3 301 800 301C746.7 301 693.3 301 640 301C586.7 301 533.3 301 480 301C426.7 301 373.3 301 320 301C266.7 301 213.3 301 160 301C106.7 301 53.3 301 26.7 301L0 301Z" fill="#9de2f1"></path><path d="M0 261L26.7 257.2C53.3 253.3 106.7 245.7 160 246C213.3 246.3 266.7 254.7 320 257.3C373.3 260 426.7 257 480 251.7C533.3 246.3 586.7 238.7 640 240.3C693.3 242 746.7 253 800 255.5C853.3 258 906.7 252 933.3 249L960 246L960 301L933.3 301C906.7 301 853.3 301 800 301C746.7 301 693.3 301 640 301C586.7 301 533.3 301 480 301C426.7 301 373.3 301 320 301C266.7 301 213.3 301 160 301C106.7 301 53.3 301 26.7 301L0 301Z" fill="#77c2f9"></path></svg>