<svg id="visual" viewBox="0 0 960 300" width="960" height="300" xmlns="http://www.w3.org/2000/svg" xmlns:xlink="http://www.w3.org/1999/xlink" version="1.1"><rect x="0" y="0" width="960" height="300" fill="#ffffff"></rect><path d="M0 65L26.7 72.7C53.3 80.3 106.7 95.7 160 103.3C213.3 111 266.7 111 320 110.7C373.3 110.3 426.7 109.7 480 103.8C533.3 98 586.7 87 640 79.5C693.3 72 746.7 68 800 77.8C853.3 87.7 906.7 111.3 933.3 123.2L960 135L960 301L933.3 301C906.7 301 853.3 301 800 301C746.7 301 693.3 301 640 301C586.7 301 533.3 301 480 301C426.7 301 373.3 301 320 301C266.7 301 213.3 301 160 301C106.7 301 53.3 301 26.7 301L0 301Z" fill="#ddfaf4"></path><path d="M0 141L26.7 141C53.3 141 106.7 141 160 150C213.3 159 266.7 177 320 175.5C373.3 174 426.7 153 480 148C533.3 143 586.7 154 640 160.2C693.3 166.3 746.7 167.7 800 165.7C853.3 163.7 906.7 158.3 933.3 155.7L960 153L960 301L933.3 301C906.7 301 853.3 301 800 301C746.7 301 693.3 301 640 301C586.7 301 533.3 301 480 301C426.7 301 373.3 301 320 301C266.7 301 213.3 301 160 301C106.7 301 53.3 301 26.7 301L0 301Z" fill="#9de2f1"></path><path d="M0 231L26.7 229.3C53.3 227.7 106.7 224.3 160 225.8C213.3 227.3 266.7 233.7 320 230.8C373.3 228 426.7 216 480 212.3C533.3 208.7 586.7 213.3 640 218C693.3 222.7 746.7 227.3 800 225.8C853.3 224.3 906.7 216.7 933.3 212.8L960 209L960 301L933.3 301C906.7 301 853.3 301 800 301C746.7 301 693.3 301 640 301C586.7 301 533.3 301 480 301C426.7 301 373.3 301 320 301C266.7 301 213.3 301 160 301C106.7 301 53.3 301 26.7 301L0 301Z" fill="#77c2f9"></path></svg>